<svg xmlns="http://www.w3.org/2000/svg" version="1.1" xmlns:xlink="http://www.w3.org/1999/xlink" xmlns:svgjs="http://svgjs.dev/svgjs" width="100%" height="100%" viewBox="0 0 1000 600"><rect width="1000" height="600" x="0" y="0" fill="#f4efea"/><g><rect width="333.3333333333333" height="333.3333333333333" rx="13.333333333333334" ry="13.333333333333334" y="150.90254856785825" fill="#7d141d" transform="matrix(0.9713996195035084,0,0,0.9713996195035084,0,-8.486608031782794)" x="128.6803436279297"/><path d="M258.38272124810453 392.56921528813314L239.09700754627244 392.56921528813314L239.09700754627244 242.56921982943922L266.0910543480652 242.56921982943922L332.3112904384608 367.2715970064089L332.3112904384608 242.56921982943922L351.5970041402928 242.56921982943922L351.5970041402928 392.56921528813314L325.01962399255206 392.56921528813314L258.38272124810453 268.70017141926724L258.38272124810453 392.56921528813314Z " fill="#f4efea" transform="matrix(0.9713996195035084,0,0,0.9713996195035084,0,-8.486608031782794)"/><path d="M562.1094294724227 356.58817940871654L548.1479231786649 356.58817940871654L548.1479231786649 275.9216986003382L562.1094294724227 275.9216986003382L562.1094294724227 356.58817940871654ZM555.1286763255438 262.11101104740806L555.1286763255438 262.11101104740806Q551.0996613920056 262.11101104740806 548.2341053162806 259.1592728340672Q545.3470037061518 256.2290801551304 545.3470037061518 252.3508839624199L545.3470037061518 252.3508839624199Q545.3470037061518 247.84786727199497 547.9971044378373 245.19776654030946Q550.6256596351188 242.56921134302792 555.1286763255438 242.56921134302792L555.1286763255438 242.56921134302792Q559.157691259082 242.56921134302792 562.0232473348069 245.43476741875287Q564.9103489449358 248.30032349447788 564.9103489449358 252.3508839624199L564.9103489449358 252.3508839624199Q564.9103489449358 256.6815363776133 562.2602482132504 259.39627371251066Q559.6316930159687 262.11101104740806 555.1286763255438 262.11101104740806ZM616.5549949111974 392.56922186330837L616.5549949111974 392.56922186330837Q609.4234230234908 392.56922186330837 602.6796707550552 390.86712464539664Q595.9359184866198 389.1650274274848 590.6572625576528 385.7608329916611L590.6572625576528 385.7608329916611L595.7635542113883 373.6522426566428Q599.4909316632711 376.6039808699835 604.4679501105829 378.54307896633884Q609.4234230234908 380.48217706269406 616.5549949111974 380.48217706269406L616.5549949111974 380.48217706269406Q627.5647629916143 380.48217706269406 633.8560590375669 374.6648827736283Q640.1473550835195 368.8475884845625 640.1473550835195 356.1141776518298L640.1473550835195 356.1141776518298L640.1473550835195 346.20323182601396Q637.0447981293511 349.9090637434929 631.2275038402854 353.2486215761047Q625.4102095512196 356.58817940871654 617.3306341497394 356.58817940871654L617.3306341497394 356.58817940871654Q608.1737820280619 356.58817940871654 599.9649334201579 351.8481618398482Q591.7345392778501 347.1296898053837 586.6282476241147 337.9728376837062Q581.5004104359753 328.8159855620286 581.5004104359753 315.95330152287215L581.5004104359753 315.95330152287215Q581.5004104359753 303.84471118785376 586.5420654864988 294.3862215845209Q591.5837205370225 284.9277319811881 600.1157521609855 279.4982573113934Q608.6477837849486 274.0687826415987 618.8819126268236 274.0687826415987L618.8819126268236 274.0687826415987Q625.7118470328749 274.0687826415987 631.2921404434971 276.39570035722505Q636.8724338541194 278.72261807285133 640.9229943220616 282.12681250867496L640.9229943220616 282.12681250867496L640.9229943220616 275.9216986003382L653.6348596203904 275.9216986003382L653.6348596203904 354.7352634499771Q653.6348596203904 368.0719492460204 648.9810241891379 376.4531621291559Q644.3271887578852 384.8128294778875 636.0321580123656 388.6910256705979Q627.7371272668458 392.56922186330837 616.5549949111974 392.56922186330837ZM620.4331911039078 344.177951592043L620.4331911039078 344.177951592043Q626.6383050122446 344.177951592043 631.6153234595564 341.3770321195299Q636.5707963724642 338.5976581814207 639.6733533266327 334.87028072953774L639.6733533266327 334.87028072953774L639.6733533266327 292.6841243666091Q636.269158890809 290.18484237575126 631.4429591843248 288.1811076761841Q626.6383050122446 286.15582744221314 620.2823723630802 286.15582744221314L620.2823723630802 286.15582744221314Q613.9264397139157 286.15582744221314 608.3461463032934 289.58156741244073Q602.7443073582672 292.98576184826436 599.2539307848276 299.4278766350446Q595.7635542113883 305.8699914218248 595.7635542113883 315.17766228433004L595.7635542113883 315.17766228433004Q595.7635542113883 324.0113313899484 599.2539307848276 330.5180827799404Q602.7443073582672 337.04637970433646 608.3461463032934 340.60139288098776Q613.9264397139157 344.177951592043 620.4331911039078 344.177951592043ZM707.3047858206229 392.56922186330837L707.3047858206229 392.56922186330837Q700.1732139329164 392.56922186330837 693.429461664481 390.86712464539664Q686.6857093960455 389.1650274274848 681.4070534670784 385.7608329916611L681.4070534670784 385.7608329916611L686.5133451208138 373.6522426566428Q690.2407225726968 376.6039808699835 695.2177410200086 378.54307896633884Q700.1732139329164 380.48217706269406 707.3047858206229 380.48217706269406L707.3047858206229 380.48217706269406Q718.31455390104 380.48217706269406 724.6058499469925 374.6648827736283Q730.8971459929452 368.8475884845625 730.8971459929452 356.1141776518298L730.8971459929452 356.1141776518298L730.8971459929452 346.20323182601396Q727.7945890387767 349.9090637434929 721.977294749711 353.2486215761047Q716.1600004606452 356.58817940871654 708.080425059165 356.58817940871654L708.080425059165 356.58817940871654Q698.9235729374874 356.58817940871654 690.7147243295836 351.8481618398482Q682.4843301872758 347.1296898053837 677.3780385335402 337.9728376837062Q672.2502013454008 328.8159855620286 672.2502013454008 315.95330152287215L672.2502013454008 315.95330152287215Q672.2502013454008 303.84471118785376 677.2918563959245 294.3862215845209Q682.3335114464481 284.9277319811881 690.8655430704113 279.4982573113934Q699.3975746943743 274.0687826415987 709.6317035362492 274.0687826415987L709.6317035362492 274.0687826415987Q716.4616379423005 274.0687826415987 722.0419313529228 276.39570035722505Q727.6222247635452 278.72261807285133 731.6727852314872 282.12681250867496L731.6727852314872 282.12681250867496L731.6727852314872 275.9216986003382L744.3846505298161 275.9216986003382L744.3846505298161 354.7352634499771Q744.3846505298161 368.0719492460204 739.7308150985635 376.4531621291559Q735.0769796673109 384.8128294778875 726.7819489217912 388.6910256705979Q718.4869181762715 392.56922186330837 707.3047858206229 392.56922186330837ZM711.1829820133335 344.177951592043L711.1829820133335 344.177951592043Q717.3880959216702 344.177951592043 722.3651143689821 341.3770321195299Q727.32058728189 338.5976581814207 730.4231442360583 334.87028072953774L730.4231442360583 334.87028072953774L730.4231442360583 292.6841243666091Q727.0189498002346 290.18484237575126 722.1927500937505 288.1811076761841Q717.3880959216702 286.15582744221314 711.0321632725058 286.15582744221314L711.0321632725058 286.15582744221314Q704.6762306233414 286.15582744221314 699.095937212719 289.58156741244073Q693.4940982676927 292.98576184826436 690.0037216942534 299.4278766350446Q686.5133451208138 305.8699914218248 686.5133451208138 315.17766228433004L686.5133451208138 315.17766228433004Q686.5133451208138 324.0113313899484 690.0037216942534 330.5180827799404Q693.4940982676927 337.04637970433646 699.095937212719 340.60139288098776Q704.6762306233414 344.177951592043 711.1829820133335 344.177951592043ZM800.7046774617341 358.441095367456L800.7046774617341 358.441095367456Q783.3174311977488 358.441095367456 773.1694844934896 347.3666906838272Q762.9999922548265 336.27074046579435 762.9999922548265 316.2549390045274L762.9999922548265 316.2549390045274Q762.9999922548265 304.146348669509 767.5676455484632 294.62322246296435Q772.1568443765041 285.07855072201573 780.3656929844079 279.56289391460524Q788.5960871267158 274.0687826415987 799.4550364663052 274.0687826415987L799.4550364663052 274.0687826415987Q811.0896250444367 274.0687826415987 818.759835292242 279.1104376921224Q826.451591074451 284.152092742646 830.3297872671616 292.6841243666091Q834.207983459872 301.2161559905722 834.207983459872 311.45028483244715L834.207983459872 311.45028483244715Q834.207983459872 316.8797595022419 833.7339817029853 321.9860511559774L833.7339817029853 321.9860511559774L777.2631360302395 321.9860511559774Q778.6635957664961 333.31900225245363 785.1918926908921 339.67493490161803Q791.6986440808842 346.03086755078243 802.406774679646 346.03086755078243L802.406774679646 346.03086755078243Q809.3875278265249 346.03086755078243 814.9678212371472 344.565771211314Q820.5481146477695 343.1006748718456 825.6759518359089 340.7737571562193L825.6759518359089 340.7737571562193L828.929327530905 352.7099832160061Q823.3490341202827 355.18771967246005 816.3682809734038 356.82518028716004Q809.3875278265249 358.441095367456 800.7046774617341 358.441095367456ZM777.1123172894119 310.67464559390504L777.1123172894119 310.67464559390504L821.3237538863116 310.67464559390504Q821.3237538863116 298.8892382749459 815.4418229940339 292.51176009137754Q809.5383465673525 286.15582744221314 799.1533989846499 286.15582744221314L799.1533989846499 286.15582744221314Q790.1473656037999 286.15582744221314 784.2438891771185 292.4471234881657Q778.3619582848409 298.7168739997143 777.1123172894119 310.67464559390504ZM866.7848314786403 356.58817940871654L852.8233251848824 356.58817940871654L852.8233251848824 275.9216986003382L866.3108297217533 275.9216986003382L866.3108297217533 293.4597636051512Q868.3361099557244 288.3319264170118 871.740304391548 283.9150918642026Q875.1660443617757 279.4982573113934 880.2723360155111 276.78351997649605Q885.4001732036505 274.0687826415987 892.2301076097018 274.0687826415987L892.2301076097018 274.0687826415987Q894.5570253253281 274.0687826415987 896.8839430409545 274.2842379856382Q899.2108607565807 274.5212388640816 900.7621392336649 274.99524062096845L900.7621392336649 274.99524062096845L896.5607600248952 289.40920313720915Q893.6090218115545 288.1811076761841 889.5800068780163 288.1811076761841L889.5800068780163 288.1811076761841Q883.8488947265663 288.1811076761841 878.6564209352151 291.4344833711802Q873.4424016094599 294.6878590661762 870.124389311252 301.5177934722275Q866.7848314786403 308.3477278782787 866.7848314786403 318.88349420180896L866.7848314786403 318.88349420180896L866.7848314786403 356.58817940871654Z " fill="#7d141d" transform="matrix(0.9713996195035084,0,0,0.9713996195035084,0,-8.486608031782794)"/></g></svg>